<svg preserveAspectRatio="none" width="100%" height="100%" overflow="visible" style="display: block;" viewBox="0 0 115.786 155.2" fill="none" xmlns="http://www.w3.org/2000/svg">
<g id="Stamp" filter="url(#filter0_dd_0_274)">
<path id="Vector 11" fill-rule="evenodd" clip-rule="evenodd" d="M64.5796 66.5426C64.5796 73.3908 69.6153 79.1491 73.9162 84.0673C74.6652 84.9238 75.726 86.0496 76.9121 87.3081C80.3929 91.0018 84.9516 95.8395 85.872 98.3733C77.0976 97.4113 66.3341 96.4668 57.8931 96.4668C49.4522 96.4668 38.6887 97.4113 29.9143 98.3733C30.8347 95.8395 35.3936 91.0018 38.8742 87.3081C40.0603 86.0496 41.1211 84.9238 41.8701 84.0673C46.171 79.1491 51.2067 73.3908 51.2067 66.5426C51.2067 60.6472 47.7726 55.7209 44.2918 50.7281C40.7154 45.5985 37.0903 40.3987 37.0903 34.0051C37.0903 21.3885 45.6562 10.1 57.8931 10.1C70.1301 10.1 78.696 21.3885 78.696 34.0051C78.696 40.3987 75.0709 45.5985 71.4945 50.7281C68.0137 55.7209 64.5796 60.6471 64.5796 66.5426Z" fill="var(--fill-0, #EAE4DC)" stroke="var(--stroke-0, #2E2926)" style="fill:#EAE4DC;fill:color(display-p3 0.9176 0.8941 0.8627);fill-opacity:1;stroke:#2E2926;stroke:color(display-p3 0.1804 0.1608 0.1490);stroke-opacity:1;"/>
<path id="Rectangle 5" d="M22.6154 127.292H93.1708L90.7378 137.1H25.0483L22.6154 127.292Z" fill="var(--fill-0, #9A9088)" stroke="var(--stroke-0, #2E2926)" style="fill:#9A9088;fill:color(display-p3 0.6039 0.5647 0.5333);fill-opacity:1;stroke:#2E2926;stroke:color(display-p3 0.1804 0.1608 0.1490);stroke-opacity:1;"/>
<path id="Rectangle 4" d="M57.893 96.6416C49.5018 96.6416 38.8019 97.4997 30.0793 98.3737C21.0243 99.281 14.1 100.206 14.1 100.206V127.292H22.6153H93.1707H101.686V100.206C101.686 100.206 94.7617 99.281 85.7068 98.3737C76.9841 97.4997 66.2842 96.6416 57.893 96.6416Z" fill="var(--fill-0, #524A44)" stroke="var(--stroke-0, #2E2926)" style="fill:#524A44;fill:color(display-p3 0.3216 0.2902 0.2667);fill-opacity:1;stroke:#2E2926;stroke:color(display-p3 0.1804 0.1608 0.1490);stroke-opacity:1;"/>
</g>
<defs>
<filter id="filter0_dd_0_274" x="3.57628e-07" y="0" width="115.786" height="155.2" filterUnits="userSpaceOnUse" color-interpolation-filters="sRGB">
<feFlood flood-opacity="0" result="BackgroundImageFix"/>
<feColorMatrix in="SourceAlpha" type="matrix" values="0 0 0 0 0 0 0 0 0 0 0 0 0 0 0 0 0 0 127 0" result="hardAlpha"/>
<feMorphology radius="4" operator="dilate" in="SourceAlpha" result="effect1_dropShadow_0_274"/>
<feOffset dy="4"/>
<feGaussianBlur stdDeviation="4.8"/>
<feComposite in2="hardAlpha" operator="out"/>
<feColorMatrix type="matrix" values="0 0 0 0 0.180392 0 0 0 0 0.160784 0 0 0 0 0.14902 0 0 0 0.1 0"/>
<feBlend mode="normal" in2="BackgroundImageFix" result="effect1_dropShadow_0_274"/>
<feColorMatrix in="SourceAlpha" type="matrix" values="0 0 0 0 0 0 0 0 0 0 0 0 0 0 0 0 0 0 127 0" result="hardAlpha"/>
<feMorphology radius="2" operator="dilate" in="SourceAlpha" result="effect2_dropShadow_0_274"/>
<feOffset dy="10"/>
<feGaussianBlur stdDeviation="2.1"/>
<feComposite in2="hardAlpha" operator="out"/>
<feColorMatrix type="matrix" values="0 0 0 0 0.180392 0 0 0 0 0.160784 0 0 0 0 0.14902 0 0 0 0.22 0"/>
<feBlend mode="normal" in2="effect1_dropShadow_0_274" result="effect2_dropShadow_0_274"/>
<feBlend mode="normal" in="SourceGraphic" in2="effect2_dropShadow_0_274" result="shape"/>
</filter>
</defs>
</svg>
