<svg preserveAspectRatio="none" width="100%" height="100%" overflow="visible" style="display: block;" viewBox="0 0 106.806 161.271" fill="none" xmlns="http://www.w3.org/2000/svg">
<g id="Scissors" filter="url(#filter0_dd_0_297)">
<g id="Exclude">
<mask id="path-1-inside-1_0_297" fill="white">
<path d="M39.3493 9.6C39.3493 9.6 67.2658 90.4696 69.7656 98.0738C72.2653 105.678 73.7994 106.219 78.3423 107.008C82.8852 107.797 90.6784 113.373 92.5646 120.348C95.2368 130.23 89.3189 140.387 79.3463 143.035C69.3733 145.683 59.1219 139.818 56.4496 129.936C54.6332 123.219 57.5228 117.019 61.4851 111.847C62.7594 110.184 63.501 107.475 61.1616 100.651C58.8266 93.8404 49.5375 79.4725 49.5015 79.4169C49.5015 79.4169 39.8294 37.5664 38.1631 23.5744C36.5083 9.6785 39.3108 9.60041 39.3493 9.6ZM71.5292 114.131C65.3923 115.761 61.7503 122.011 63.3946 128.093C65.039 134.174 71.3473 137.783 77.4844 136.154C83.6216 134.524 87.2641 128.273 85.6197 122.192C83.9751 116.111 77.6663 112.502 71.5292 114.131Z"/>
</mask>
<path d="M39.3493 9.6C39.3493 9.6 67.2658 90.4696 69.7656 98.0738C72.2653 105.678 73.7994 106.219 78.3423 107.008C82.8852 107.797 90.6784 113.373 92.5646 120.348C95.2368 130.23 89.3189 140.387 79.3463 143.035C69.3733 145.683 59.1219 139.818 56.4496 129.936C54.6332 123.219 57.5228 117.019 61.4851 111.847C62.7594 110.184 63.501 107.475 61.1616 100.651C58.8266 93.8404 49.5375 79.4725 49.5015 79.4169C49.5015 79.4169 39.8294 37.5664 38.1631 23.5744C36.5083 9.6785 39.3108 9.60041 39.3493 9.6ZM71.5292 114.131C65.3923 115.761 61.7503 122.011 63.3946 128.093C65.039 134.174 71.3473 137.783 77.4844 136.154C83.6216 134.524 87.2641 128.273 85.6197 122.192C83.9751 116.111 77.6663 112.502 71.5292 114.131Z" fill="var(--fill-0, #F5F2EF)" style="fill:#F5F2EF;fill:color(display-p3 0.9608 0.9490 0.9373);fill-opacity:1;"/>
<path d="M39.3493 9.6L40.2957 9.27809L40.0594 8.59343L39.3345 8.6012L39.3493 9.6ZM69.7656 98.0738L68.8144 98.3817V98.3817L69.7656 98.0738ZM78.3423 107.008L78.1743 107.992V107.992L78.3423 107.008ZM92.5646 120.348L93.5311 120.091L93.5311 120.091L92.5646 120.348ZM79.3463 143.035L79.6073 144.001L79.6073 144.001L79.3463 143.035ZM56.4496 129.936L55.4831 130.193L55.4831 130.193L56.4496 129.936ZM61.4851 111.847L62.2814 112.456L62.2815 112.456L61.4851 111.847ZM61.1616 100.651L62.1088 100.331L62.1088 100.331L61.1616 100.651ZM49.5015 79.4169L48.526 79.6377L48.5655 79.8086L48.6609 79.9561L49.5015 79.4169ZM38.1631 23.5744L37.1689 23.6883L37.1689 23.6883L38.1631 23.5744ZM71.5292 114.131L71.2681 113.166L71.2681 113.166L71.5292 114.131ZM63.3946 128.093L62.428 128.349L62.4281 128.349L63.3946 128.093ZM77.4844 136.154L77.7454 137.119L77.7454 137.119L77.4844 136.154ZM85.6197 122.192L86.5862 121.935L86.5862 121.935L85.6197 122.192ZM39.3493 9.6C38.4028 9.92192 38.4029 9.92222 38.4032 9.92284C38.4034 9.92345 38.4037 9.92438 38.4041 9.92561C38.405 9.92806 38.4062 9.93175 38.4079 9.93664C38.4113 9.94644 38.4164 9.9611 38.4231 9.98055C38.4365 10.0194 38.4565 10.0775 38.483 10.1541C38.5359 10.3074 38.6144 10.5349 38.7169 10.8319C38.922 11.4261 39.2231 12.2985 39.6072 13.4115C40.3754 15.6376 41.4757 18.8263 42.8038 22.6764C45.46 30.3766 49.0276 40.7228 52.6734 51.3066C59.9671 72.4806 67.5674 94.5884 68.8144 98.3817L69.7656 98.0738L70.7167 97.7659C69.464 93.955 61.8562 71.8258 54.5667 50.664C50.9208 40.0799 47.3531 29.7334 44.6968 22.033C43.3687 18.1828 42.2684 14.9941 41.5002 12.7679C41.116 11.6548 40.8149 10.7824 40.6099 10.1882C40.5073 9.8911 40.4288 9.66358 40.3759 9.51033C40.3494 9.4337 40.3294 9.37564 40.316 9.33674C40.3092 9.31729 40.3042 9.30262 40.3008 9.29282C40.2991 9.28792 40.2978 9.28424 40.297 9.28178C40.2966 9.28055 40.2962 9.27963 40.296 9.27901C40.2958 9.27839 40.2957 9.27809 39.3493 9.6ZM69.7656 98.0738L68.8144 98.3817C70.0628 102.179 71.1336 104.445 72.6039 105.823C74.1166 107.241 75.9345 107.603 78.1743 107.992L78.3423 107.008L78.5102 106.024C76.2072 105.624 74.9866 105.321 73.9716 104.37C72.9141 103.379 71.9681 101.572 70.7167 97.7659L69.7656 98.0738ZM78.3423 107.008L78.1743 107.992C80.208 108.345 83.1299 109.821 85.7982 112.114C88.4553 114.397 90.7243 117.373 91.5981 120.604L92.5646 120.348L93.5311 120.091C92.5187 116.347 89.948 113.048 87.1013 110.602C84.2657 108.166 81.0195 106.46 78.5102 106.024L78.3423 107.008ZM92.5646 120.348L91.5981 120.604C94.1242 129.946 88.5313 139.562 79.0852 142.07L79.3463 143.035L79.6073 144.001C90.1066 141.213 96.3494 130.513 93.5311 120.091L92.5646 120.348ZM79.3463 143.035L79.0852 142.07C69.6389 144.578 59.9423 139.021 57.4162 129.68L56.4496 129.936L55.4831 130.193C58.3015 140.615 69.1078 146.788 79.6073 144.001L79.3463 143.035ZM56.4496 129.936L57.4162 129.68C55.7217 123.413 58.3856 117.541 62.2814 112.456L61.4851 111.847L60.6889 111.239C56.66 116.497 53.5447 123.024 55.4831 130.193L56.4496 129.936ZM61.4851 111.847L62.2815 112.456C63.0444 111.46 63.6206 110.166 63.6792 108.218C63.7365 106.311 63.2976 103.799 62.1088 100.331L61.1616 100.651L60.2145 100.971C61.365 104.327 61.725 106.581 61.6778 108.15C61.6319 109.679 61.2002 110.571 60.6888 111.239L61.4851 111.847ZM61.1616 100.651L62.1088 100.331C60.9033 96.8152 57.9439 91.4361 55.3323 86.9977C52.7034 82.53 50.3635 78.9108 50.3421 78.8777L49.5015 79.4169L48.6609 79.9561C48.6755 79.9786 50.9982 83.5712 53.6066 88.004C56.2322 92.4661 59.0849 97.6764 60.2145 100.971L61.1616 100.651ZM49.5015 79.4169C50.477 79.1961 50.477 79.196 50.4769 79.1957C50.4769 79.1954 50.4768 79.1949 50.4766 79.1943C50.4763 79.1931 50.4759 79.1912 50.4753 79.1887C50.4741 79.1836 50.4724 79.1761 50.4701 79.166C50.4655 79.146 50.4585 79.1159 50.4494 79.0762C50.4311 78.9968 50.4039 78.8786 50.3683 78.7239C50.2971 78.4143 50.1925 77.9584 50.0587 77.373C49.7912 76.2022 49.4071 74.5138 48.941 72.4439C48.0087 68.3039 46.7483 62.6386 45.436 56.5368C42.8069 44.3119 39.9838 30.4007 39.1572 23.4604L38.1631 23.5744L37.1689 23.6883C38.0087 30.7401 40.8549 44.7501 43.4784 56.9485C44.7924 63.0583 46.0542 68.7302 46.9875 72.8744C47.4541 74.9466 47.8387 76.6371 48.1066 77.8097C48.2406 78.3959 48.3454 78.8528 48.4167 79.1631C48.4524 79.3183 48.4797 79.4368 48.4981 79.5166C48.5073 79.5565 48.5143 79.5867 48.519 79.607C48.5213 79.6171 48.5231 79.6248 48.5242 79.6299C48.5248 79.6325 48.5253 79.6344 48.5256 79.6357C48.5257 79.6363 48.5258 79.6368 48.5259 79.6372C48.526 79.6375 48.526 79.6377 49.5015 79.4169ZM38.1631 23.5744L39.1572 23.4604C38.3337 16.5447 38.6415 13.2128 39.0845 11.6521C39.3031 10.8821 39.5325 10.6232 39.5978 10.5627C39.6431 10.5208 39.5808 10.5965 39.364 10.5988L39.3493 9.6L39.3345 8.6012C39.0985 8.60374 38.6715 8.68934 38.2321 9.09641C37.8129 9.4849 37.4379 10.1141 37.1578 11.1007C36.6037 13.053 36.3377 16.7082 37.1689 23.6883L38.1631 23.5744ZM71.5292 114.131L71.2681 113.166C64.6047 114.935 60.6377 121.728 62.428 128.349L63.3946 128.093L64.3611 127.836C62.863 122.295 66.1799 116.587 71.7902 115.097L71.5292 114.131ZM63.3946 128.093L62.4281 128.349C64.2186 134.97 71.0817 138.888 77.7454 137.119L77.4844 136.154L77.2234 135.189C71.6129 136.678 65.8594 133.377 64.3611 127.836L63.3946 128.093ZM77.4844 136.154L77.7454 137.119C84.4092 135.35 88.3767 128.557 86.5862 121.935L85.6197 122.192L84.6532 122.448C86.1515 127.989 82.834 133.699 77.2233 135.189L77.4844 136.154ZM85.6197 122.192L86.5862 121.935C84.7954 115.314 77.9317 111.397 71.2681 113.166L71.5292 114.131L71.7902 115.097C77.4008 113.607 83.1547 116.908 84.6532 122.448L85.6197 122.192Z" fill="var(--stroke-0, #2E2926)" style="fill:#2E2926;fill:color(display-p3 0.1804 0.1608 0.1490);fill-opacity:1;" mask="url(#path-1-inside-1_0_297)"/>
</g>
<g id="Exclude_2">
<mask id="path-3-inside-2_0_297" fill="white">
<path d="M67.457 9.6C67.457 9.6 39.5404 90.4696 37.0407 98.0738C34.541 105.678 33.0068 106.219 28.464 107.008C23.921 107.797 16.1279 113.373 14.2417 120.348C11.5695 130.23 17.4874 140.387 27.46 143.035C37.4329 145.683 47.6844 139.818 50.3566 129.936C52.1731 123.219 49.2834 117.019 45.3211 111.847C44.0469 110.184 43.3053 107.475 45.6446 100.651C47.9802 93.8391 57.2724 79.4668 57.3047 79.4169C57.3047 79.4169 66.9769 37.5663 68.6432 23.5744C70.298 9.67795 67.4953 9.60041 67.457 9.6ZM35.2762 114.131C41.4132 115.761 45.0549 122.011 43.4107 128.092C41.7663 134.173 35.4581 137.783 29.3209 136.154C23.1838 134.524 19.5421 128.273 21.1866 122.192C22.8312 116.111 29.1391 112.502 35.2762 114.131Z"/>
</mask>
<path d="M67.457 9.6C67.457 9.6 39.5404 90.4696 37.0407 98.0738C34.541 105.678 33.0068 106.219 28.464 107.008C23.921 107.797 16.1279 113.373 14.2417 120.348C11.5695 130.23 17.4874 140.387 27.46 143.035C37.4329 145.683 47.6844 139.818 50.3566 129.936C52.1731 123.219 49.2834 117.019 45.3211 111.847C44.0469 110.184 43.3053 107.475 45.6446 100.651C47.9802 93.8391 57.2724 79.4668 57.3047 79.4169C57.3047 79.4169 66.9769 37.5663 68.6432 23.5744C70.298 9.67795 67.4953 9.60041 67.457 9.6ZM35.2762 114.131C41.4132 115.761 45.0549 122.011 43.4107 128.092C41.7663 134.173 35.4581 137.783 29.3209 136.154C23.1838 134.524 19.5421 128.273 21.1866 122.192C22.8312 116.111 29.1391 112.502 35.2762 114.131Z" fill="var(--fill-0, #D4CCC0)" style="fill:#D4CCC0;fill:color(display-p3 0.8314 0.8000 0.7529);fill-opacity:1;"/>
<path d="M67.457 9.6L66.5105 9.27809L66.7469 8.5935L67.4716 8.6012L67.457 9.6ZM37.0407 98.0738L37.9919 98.3817V98.3817L37.0407 98.0738ZM28.464 107.008L28.6319 107.992V107.992L28.464 107.008ZM14.2417 120.348L13.2751 120.091L13.2752 120.091L14.2417 120.348ZM27.46 143.035L27.199 144.001L27.1989 144.001L27.46 143.035ZM50.3566 129.936L51.3231 130.193L51.3231 130.193L50.3566 129.936ZM45.3211 111.847L44.5248 112.456L44.5248 112.456L45.3211 111.847ZM45.6446 100.651L44.6975 100.331L44.6975 100.331L45.6446 100.651ZM57.3047 79.4169L58.2802 79.6377L58.2407 79.8086L58.1453 79.9561L57.3047 79.4169ZM68.6432 23.5744L69.6373 23.6883L69.6373 23.6883L68.6432 23.5744ZM35.2762 114.131L35.5372 113.166L35.5372 113.166L35.2762 114.131ZM43.4107 128.092L44.3773 128.349L44.3773 128.349L43.4107 128.092ZM29.3209 136.154L29.0599 137.119L29.0599 137.119L29.3209 136.154ZM21.1866 122.192L20.2201 121.935L20.2201 121.935L21.1866 122.192ZM67.457 9.6C68.4034 9.92192 68.4033 9.92222 68.4031 9.92284C68.4029 9.92345 68.4026 9.92438 68.4021 9.92561C68.4013 9.92806 68.4 9.93175 68.3983 9.93664C68.395 9.94644 68.3899 9.9611 68.3832 9.98055C68.3698 10.0194 68.3497 10.0775 68.3233 10.1541C68.2704 10.3074 68.1918 10.5349 68.0893 10.8319C67.8842 11.4261 67.5831 12.2985 67.199 13.4115C66.4308 15.6376 65.3306 18.8263 64.0025 22.6764C61.3463 30.3766 57.7786 40.7228 54.1329 51.3066C46.8392 72.4806 39.2388 94.5884 37.9919 98.3817L37.0407 98.0738L36.0895 97.7659C37.3423 93.955 44.9501 71.8258 52.2396 50.664C55.8855 40.0799 59.4532 29.7334 62.1095 22.033C63.4376 18.1828 64.5379 14.9941 65.3061 12.7679C65.6902 11.6548 65.9913 10.7824 66.1964 10.1882C66.2989 9.8911 66.3775 9.66358 66.4304 9.51033C66.4568 9.4337 66.4769 9.37564 66.4903 9.33674C66.497 9.31729 66.5021 9.30262 66.5055 9.29282C66.5071 9.28792 66.5084 9.28424 66.5093 9.28178C66.5097 9.28055 66.51 9.27963 66.5102 9.27901C66.5104 9.27839 66.5105 9.27809 67.457 9.6ZM37.0407 98.0738L37.9919 98.3817C36.7435 102.179 35.6726 104.445 34.2024 105.823C32.6896 107.241 30.8717 107.603 28.6319 107.992L28.464 107.008L28.296 106.024C30.5991 105.624 31.8197 105.321 32.8346 104.37C33.8921 103.379 34.8382 101.572 36.0895 97.7659L37.0407 98.0738ZM28.464 107.008L28.6319 107.992C26.5983 108.345 23.6763 109.821 21.0081 112.114C18.351 114.397 16.0819 117.373 15.2082 120.604L14.2417 120.348L13.2752 120.091C14.2876 116.347 16.8582 113.048 19.705 110.602C22.5406 108.166 25.7867 106.46 28.296 106.024L28.464 107.008ZM14.2417 120.348L15.2082 120.604C12.6821 129.946 18.275 139.562 27.7211 142.07L27.46 143.035L27.1989 144.001C16.6997 141.213 10.4568 130.513 13.2751 120.091L14.2417 120.348ZM27.46 143.035L27.721 142.07C37.1674 144.578 46.864 139.021 49.3901 129.68L50.3566 129.936L51.3231 130.193C48.5048 140.615 37.6984 146.788 27.199 144.001L27.46 143.035ZM50.3566 129.936L49.3901 129.68C51.0846 123.413 48.4206 117.541 44.5248 112.456L45.3211 111.847L46.1174 111.239C50.1462 116.497 53.2616 123.024 51.3231 130.193L50.3566 129.936ZM45.3211 111.847L44.5248 112.456C43.7619 111.46 43.1856 110.166 43.1271 108.218C43.0697 106.311 43.5086 103.799 44.6975 100.331L45.6446 100.651L46.5917 100.971C45.4413 104.327 45.0813 106.581 45.1285 108.15C45.1744 109.679 45.6061 110.571 46.1174 111.239L45.3211 111.847ZM45.6446 100.651L44.6975 100.331C45.9032 96.8145 48.8635 91.434 51.4756 86.995C54.1049 82.5268 56.4446 78.9079 56.4641 78.8777L57.3047 79.4169L58.1453 79.9561C58.1326 79.9758 55.81 83.568 53.2012 88.0014C50.5752 92.4641 47.7216 97.6757 46.5917 100.971L45.6446 100.651ZM57.3047 79.4169C56.3292 79.1961 56.3293 79.196 56.3293 79.1957C56.3294 79.1954 56.3295 79.1949 56.3296 79.1943C56.3299 79.1931 56.3304 79.1912 56.3309 79.1887C56.3321 79.1836 56.3339 79.1761 56.3362 79.166C56.3408 79.146 56.3477 79.1159 56.3569 79.0762C56.3752 78.9968 56.4024 78.8786 56.438 78.7239C56.5091 78.4143 56.6138 77.9584 56.7475 77.373C57.015 76.2022 57.3991 74.5138 57.8653 72.4438C58.7976 68.3038 60.058 62.6386 61.3702 56.5368C63.9994 44.3119 66.8225 30.4006 67.649 23.4604L68.6432 23.5744L69.6373 23.6883C68.7975 30.7401 65.9514 44.7501 63.3279 56.9485C62.0139 63.0583 60.7521 68.7302 59.8188 72.8744C59.3521 74.9466 58.9676 76.6371 58.6996 77.8097C58.5657 78.3959 58.4609 78.8528 58.3895 79.1631C58.3538 79.3183 58.3265 79.4368 58.3081 79.5166C58.2989 79.5565 58.292 79.5867 58.2873 79.607C58.285 79.6171 58.2832 79.6248 58.282 79.6299C58.2814 79.6325 58.281 79.6344 58.2807 79.6357C58.2805 79.6363 58.2804 79.6368 58.2803 79.6372C58.2803 79.6375 58.2802 79.6377 57.3047 79.4169ZM68.6432 23.5744L67.649 23.4604C68.4726 16.5444 68.1647 13.2126 67.7217 11.6519C67.5031 10.8819 67.2737 10.6232 67.2084 10.5627C67.1632 10.5208 67.2255 10.5965 67.4424 10.5988L67.457 9.6L67.4716 8.6012C67.7076 8.60371 68.1346 8.68925 68.574 9.09627C68.9933 9.48472 69.3683 10.1139 69.6483 11.1005C70.2025 13.0527 70.4686 16.7079 69.6373 23.6883L68.6432 23.5744ZM35.2762 114.131L35.5372 113.166C42.2008 114.935 46.1675 121.727 44.3773 128.349L43.4107 128.092L42.4442 127.836C43.9423 122.295 40.6256 116.586 35.0151 115.096L35.2762 114.131ZM43.4107 128.092L44.3773 128.349C42.5867 134.97 35.7237 138.888 29.0599 137.119L29.3209 136.154L29.582 135.188C35.1925 136.678 40.9459 133.377 42.4442 127.836L43.4107 128.092ZM29.3209 136.154L29.0599 137.119C22.3961 135.35 18.4295 128.556 20.2201 121.935L21.1866 122.192L22.1531 122.448C20.6547 127.989 23.9715 133.699 29.582 135.188L29.3209 136.154ZM21.1866 122.192L20.2201 121.935C22.0108 115.314 28.8736 111.397 35.5372 113.166L35.2762 114.131L35.0151 115.096C29.4047 113.607 23.6516 116.908 22.1531 122.448L21.1866 122.192Z" fill="var(--stroke-0, #2E2926)" style="fill:#2E2926;fill:color(display-p3 0.1804 0.1608 0.1490);fill-opacity:1;" mask="url(#path-3-inside-2_0_297)"/>
</g>
<path id="Ellipse 3" d="M52.5439 70.3843C53.8604 70.3843 54.9197 71.4406 54.9199 72.7339C54.9199 74.0274 53.8605 75.0845 52.5439 75.0845C51.2273 75.0845 50.1679 74.0274 50.1679 72.7339C50.168 71.4406 51.2274 70.3844 52.5439 70.3843Z" stroke="var(--stroke-0, #2E2926)" style="stroke:#2E2926;stroke:color(display-p3 0.1804 0.1608 0.1490);stroke-opacity:1;"/>
</g>
<defs>
<filter id="filter0_dd_0_297" x="-4.76837e-07" y="0" width="106.806" height="161.271" filterUnits="userSpaceOnUse" color-interpolation-filters="sRGB">
<feFlood flood-opacity="0" result="BackgroundImageFix"/>
<feColorMatrix in="SourceAlpha" type="matrix" values="0 0 0 0 0 0 0 0 0 0 0 0 0 0 0 0 0 0 127 0" result="hardAlpha"/>
<feMorphology radius="4" operator="dilate" in="SourceAlpha" result="effect1_dropShadow_0_297"/>
<feOffset dy="4"/>
<feGaussianBlur stdDeviation="4.8"/>
<feComposite in2="hardAlpha" operator="out"/>
<feColorMatrix type="matrix" values="0 0 0 0 0.180392 0 0 0 0 0.160784 0 0 0 0 0.14902 0 0 0 0.1 0"/>
<feBlend mode="normal" in2="BackgroundImageFix" result="effect1_dropShadow_0_297"/>
<feColorMatrix in="SourceAlpha" type="matrix" values="0 0 0 0 0 0 0 0 0 0 0 0 0 0 0 0 0 0 127 0" result="hardAlpha"/>
<feMorphology radius="2" operator="dilate" in="SourceAlpha" result="effect2_dropShadow_0_297"/>
<feOffset dy="10"/>
<feGaussianBlur stdDeviation="2.1"/>
<feComposite in2="hardAlpha" operator="out"/>
<feColorMatrix type="matrix" values="0 0 0 0 0.180392 0 0 0 0 0.160784 0 0 0 0 0.14902 0 0 0 0.22 0"/>
<feBlend mode="normal" in2="effect1_dropShadow_0_297" result="effect2_dropShadow_0_297"/>
<feBlend mode="normal" in="SourceGraphic" in2="effect2_dropShadow_0_297" result="shape"/>
</filter>
</defs>
</svg>
